<svg xmlns="http://www.w3.org/2000/svg" viewBox="0 0 64 64">
  <defs>
    <linearGradient id="tileGradient" x1="0%" y1="0%" x2="100%" y2="100%">
      <stop offset="0%" style="stop-color:#4a4a4a;stop-opacity:1" />
      <stop offset="100%" style="stop-color:#2a2a2a;stop-opacity:1" />
    </linearGradient>
    <filter id="shadow" x="-20%" y="-20%" width="140%" height="140%">
      <feDropShadow dx="0" dy="4" stdDeviation="8" flood-color="#000" flood-opacity="0.3"/>
    </filter>
  </defs>
  
  <!-- Background tile with gradient and shadow -->
  <rect x="8" y="8" width="48" height="48" rx="12" fill="url(#tileGradient)" filter="url(#shadow)"/>
  
  <!-- Stylized "S" letter -->
  <path d="M32 16 C 24 16, 20 20, 20 28 C 20 32, 22 34, 26 34 C 30 34, 32 32, 32 30 C 32 28, 30 26, 28 26 C 26 26, 24 28, 24 30 M 32 48 C 40 48, 44 44, 44 36 C 44 32, 42 30, 38 30 C 34 30, 32 32, 32 34 C 32 36, 34 38, 36 38 C 38 38, 40 36, 40 34" 
        stroke="#fff" 
        stroke-width="3" 
        fill="none" 
        stroke-linecap="round" 
        stroke-linejoin="round"/>
</svg>
